<?xml version="1.0" encoding="utf-8"?>
<svg xmlns="http://www.w3.org/2000/svg" viewBox="1.14 0.5 386.55 218.16">
  <rect x="1.753" y="1.004" width="385.343" height="217.199" style="stroke: rgb(255, 255, 255); fill: rgb(255, 255, 255);"/>
  <g transform="matrix(1, 0, 0, 1, -0.096827, -7.35609)">
    <g id="svg" transform="matrix(1, 0, 0, 1, -200.011765, -123.875191)">
      <g id="svgg" transform="matrix(1, 0, 0, 1, 257.102539, 45.729111)">
        <path id="path0" d="M 139.791 143.902 L 139.692 280.61 L 140.284 304.354 L 232.485 304.126 C 323.219 304.126 324.146 303.949 325.148 304.194 C 326.163 304.442 330.193 299.721 330.583 298.1 C 330.967 296.506 330.98 92.969 330.764 92.023 C 330.362 90.265 326.719 85.804 324.427 86.022 C 323.4 86.12 322.624 85.851 231.889 85.851 L 139.446 86.093 L 139.791 143.902 M 260.815 115.605 C 263.367 113.688 275.746 120.276 274.394 122.969 C 274.025 123.705 275.404 124.972 275.542 126.062 C 275.677 127.129 276.081 128.452 276.44 129.002 C 277.389 130.457 277.385 139.557 276.434 141.002 C 276.073 141.552 275.656 143.028 275.508 144.281 C 275.353 145.594 274.905 146.986 274.452 147.563 C 274.018 148.114 273.461 149.158 273.214 149.883 C 272.966 150.609 272.433 151.631 272.028 152.156 C 270.446 154.206 270.422 154.201 282.392 154.212 C 293.507 154.221 296.314 154.471 297.081 155.519 C 297.307 155.827 298.032 156.364 298.692 156.712 C 299.352 157.06 300.432 157.997 301.092 158.793 C 301.752 159.588 302.697 160.657 303.192 161.167 C 303.715 161.705 304.262 162.991 304.498 164.234 C 304.721 165.411 305.081 166.551 305.298 166.768 C 305.902 167.372 305.766 171.169 305.094 172.456 C 304.766 173.086 304.496 174.07 304.494 174.642 C 304.491 175.934 303.725 178.202 303.292 178.202 C 302.522 178.202 302.092 181.114 302.092 186.327 C 302.092 191.595 302.031 192.035 301.084 193.651 C 300.183 195.189 300.062 195.891 299.942 200.286 C 299.801 205.449 298.554 209.231 296.411 210.998 C 295.83 211.477 295.61 212.489 295.348 215.901 C 295.132 218.714 294.813 220.442 294.423 220.901 C 294.095 221.286 293.519 222.44 293.141 223.465 C 292.439 225.368 289.052 229.002 287.979 229.002 C 287.678 229.002 287.031 229.428 286.542 229.949 C 285.903 230.629 285.025 230.97 283.437 231.157 C 282.22 231.3 280.531 231.464 280.077 232.01 C 279.098 233.186 262.398 231.76 259.578 232.035 C 258.561 232.134 226.675 224.407 226.445 222.905 C 226.407 222.66 225.086 222.396 223.725 222.236 C 221.807 222.009 221.01 221.702 220.172 220.864 L 219.092 219.784 L 218.984 193.413 L 218.875 167.041 L 220.514 165.27 C 221.764 163.92 222.524 163.449 223.711 163.29 C 225.394 163.064 230.668 158.12 233.689 153.937 C 235.736 151.101 239.825 146.214 244.322 141.226 C 244.779 140.72 245.391 139.697 245.684 138.954 C 245.977 138.21 246.562 137.019 246.984 136.307 C 247.491 135.451 247.876 133.698 248.117 131.143 C 248.348 128.71 248.707 127.028 249.084 126.61 C 249.415 126.245 249.855 125.053 250.062 123.961 C 250.569 121.288 252.987 117.606 254.627 117.01 M 215.59 165.277 L 217.492 167.152 L 217.601 192.715 L 217.709 218.277 L 216.487 219.739 C 215.814 220.544 215.083 221.427 214.862 221.702 C 214.329 222.365 186.463 222.429 185.232 221.77 C 183.319 220.746 183.292 220.344 183.292 192.989 C 183.292 165.676 183.223 166.624 185.35 164.545 L 186.52 163.402 L 200.103 163.402 L 213.687 163.402 L 215.59 165.277" stroke="none" fill="#1cbc44" fill-rule="evenodd" data-index="0" style="opacity: 1;"/>
        <path id="path1" d="M -50.238 86.011 C -52.042 86.531 -55.317 89.943 -55.866 91.842 C -56.188 92.957 -55.91 121.554 -55.825 195.67 L -55.896 297.899 C -56.087 297.8 -54.087 302.513 -50.108 304.572 L 44.456 304.199 C 114.2 304.276 139.911 304.666 140.314 304.331 C 141.097 303.682 140.824 85.959 139.809 85.941 M 76.562 149.848 C 83.196 152.764 86.465 157.664 86.486 164.723 C 86.49 166.273 86.746 167.179 87.484 168.268 C 90.024 172.011 90.632 173.908 90.922 179.003 C 91.152 183.053 91.381 184.264 92.327 186.441 C 93.587 189.34 94.085 194.353 93.37 196.942 C 93.011 198.243 93.152 198.765 94.808 202.294 C 98.214 209.551 97.257 215.717 91.914 220.934 C 88.345 224.418 85.929 224.991 73.74 225.241 C 62.029 225.481 62.128 225.438 64.13 229.441 C 67.421 236.025 68.171 239.222 67.995 245.918 L 67.845 251.596 L 66.189 254.918 C 64.403 258.501 61.897 260.869 59.282 261.443 C 58.582 261.597 57.193 262.084 56.195 262.525 C 49.324 265.565 44.269 260.665 42.263 249.02 C 41.249 243.133 39.7 239.815 36.147 235.924 C 34.467 234.084 32.554 231.782 31.897 230.809 C 27.256 223.943 20.388 216.985 16.419 215.128 C 12.419 213.257 12.708 215.334 12.58 187.528 C 12.442 157.448 12.317 158.004 19.362 157.402 C 21.094 157.254 23.11 156.776 24.292 156.232 C 25.392 155.727 27.012 155.187 27.892 155.033 C 28.772 154.879 30.06 154.429 30.753 154.033 C 31.447 153.638 33.067 153.101 34.353 152.841 C 35.64 152.581 37.115 152.098 37.632 151.769 C 38.149 151.439 40.281 150.913 42.37 150.599 C 44.459 150.286 46.5 149.851 46.906 149.634 C 48.609 148.722 51.272 148.519 62.027 148.481 L 73.362 148.441 L 76.562 149.848 M 6.427 158.837 C 8.949 160.864 8.935 160.695 8.807 187.443 C 8.679 214.112 8.761 213.325 6.011 214.485 C 4.15 215.27 -18.71 215.294 -20.56 214.512 C -23.188 213.403 -23.148 213.875 -23.022 185.894 L -22.908 160.747 L -21.108 159.195 L -19.308 157.643 L -7.185 157.642 L 4.939 157.641 L 6.427 158.837" stroke="none" fill="#dc2525" fill-rule="evenodd" data-index="1" style="opacity: 1;"/>
        <path id="path3" d="M 139.786 86.083 C 135.683 86.881 149.258 86.572 233.157 86.572 C 324.066 86.572 323.979 87.014 324.671 87.779 C 325.058 88.207 325.885 88.669 326.507 88.805 C 327.334 88.987 327.707 89.36 327.889 90.187 C 328.025 90.809 328.487 91.636 328.915 92.023 C 330.139 93.131 330.139 296.873 328.915 297.981 C 328.487 298.368 328.025 299.195 327.889 299.817 C 327.707 300.644 327.334 301.017 326.507 301.199 C 325.885 301.335 325.058 301.797 324.671 302.225 C 323.979 302.99 322.563 303.002 231.654 303.002 C 174.763 303.002 139.25 303.146 139.108 303.376 C 138.611 304.181 145.186 304.233 233.553 304.119 L 324.813 304.002 L 326.518 302.767 C 327.455 302.088 328.778 300.765 329.457 299.828 L 330.692 298.123 L 330.692 195.002 L 330.692 91.881 L 329.457 90.176 C 328.778 89.239 327.455 87.916 326.518 87.237 L 324.813 86.002 C 324.813 86.002 140.284 85.986 139.786 86.083 M 256.892 116.013 C 256.342 116.308 255.323 116.757 254.627 117.01 C 252.987 117.606 250.569 121.288 250.062 123.961 C 249.855 125.053 249.415 126.245 249.084 126.61 C 248.707 127.028 248.348 128.71 248.117 131.143 C 247.876 133.698 247.491 135.451 246.984 136.307 C 246.562 137.019 245.977 138.21 245.684 138.954 C 245.391 139.697 244.779 140.72 244.322 141.226 C 239.825 146.214 235.736 151.101 233.689 153.937 C 230.668 158.12 225.394 163.064 223.711 163.29 C 222.524 163.449 221.764 163.92 220.514 165.27 L 218.875 167.041 L 218.984 193.413 L 219.092 219.784 L 220.172 220.864 C 221.01 221.702 221.807 222.009 223.725 222.236 C 225.086 222.396 226.31 222.697 226.445 222.905 C 226.932 223.649 228.447 224.189 230.75 224.439 C 232.143 224.59 233.659 225.061 234.492 225.602 C 235.284 226.115 236.83 226.612 238.054 226.744 C 239.426 226.893 240.532 227.276 241.082 227.792 C 241.678 228.352 242.852 228.719 244.851 228.97 C 246.623 229.193 248.056 229.607 248.527 230.034 C 249.108 230.559 250.464 230.824 253.996 231.1 C 256.763 231.317 259.056 231.701 259.578 232.035 C 260.897 232.879 278.438 232.857 280.077 232.01 C 280.708 231.684 282.22 231.3 283.437 231.157 C 285.025 230.97 285.903 230.629 286.542 229.949 C 287.031 229.428 287.678 229.002 287.979 229.002 C 289.052 229.002 292.439 225.368 293.141 223.465 C 293.519 222.44 294.095 221.286 294.423 220.901 C 294.813 220.442 295.132 218.714 295.348 215.901 C 295.61 212.489 295.83 211.477 296.411 210.998 C 298.554 209.231 299.801 205.449 299.942 200.286 C 300.062 195.891 300.183 195.189 301.084 193.651 C 302.031 192.035 302.092 191.595 302.092 186.327 C 302.092 181.114 302.522 178.202 303.292 178.202 C 303.725 178.202 304.491 175.934 304.494 174.642 C 304.496 174.07 304.766 173.086 305.094 172.456 C 305.766 171.169 305.902 167.372 305.298 166.768 C 305.081 166.551 304.721 165.411 304.498 164.234 C 304.262 162.991 303.715 161.705 303.192 161.167 C 302.697 160.657 301.752 159.588 301.092 158.793 C 300.432 157.997 299.352 157.06 298.692 156.712 C 298.032 156.364 297.307 155.827 297.081 155.519 C 296.314 154.471 293.507 154.221 282.392 154.212 C 270.422 154.201 270.446 154.206 272.028 152.156 C 272.433 151.631 272.966 150.609 273.214 149.883 C 273.461 149.158 274.018 148.114 274.452 147.563 C 274.905 146.986 275.353 145.594 275.508 144.281 C 275.656 143.028 276.073 141.552 276.434 141.002 C 277.385 139.557 277.389 130.457 276.44 129.002 C 276.081 128.452 275.677 127.129 275.542 126.062 C 275.404 124.972 274.901 123.618 274.394 122.969 C 273.898 122.334 273.054 121.249 272.52 120.558 C 271.985 119.866 270.95 119.051 270.22 118.746 C 269.489 118.441 268.892 118.043 268.892 117.861 C 268.892 117.206 266.809 116.602 264.55 116.602 C 263.142 116.602 261.943 116.373 261.468 116.015 C 260.513 115.292 258.234 115.291 256.892 116.013 M 266.219 118.25 C 272.728 121.289 274.872 125.44 274.872 135.002 C 274.872 141.612 274.434 143.42 271.43 149.189 C 268.186 155.418 267.713 155.153 282.511 155.402 C 292.748 155.574 294.513 155.693 295.151 156.254 C 295.558 156.612 296.504 157.216 297.253 157.596 C 303.347 160.685 305.417 169.842 301.692 177.231 C 299.947 180.692 299.906 180.857 300.36 182.602 C 301.388 186.558 300.187 193.45 298.104 195.548 C 297.915 195.738 297.86 197.202 297.981 198.802 C 298.263 202.531 297.305 206.588 295.472 209.433 C 294.674 210.672 294.025 212.279 293.885 213.365 C 292.943 220.671 289.557 227.802 287.029 227.802 C 286.867 227.802 286.093 228.247 285.309 228.79 C 281.849 231.188 256.454 231.349 250.866 229.008 C 249.861 228.587 247.905 228.06 246.518 227.837 C 245.131 227.614 243.573 227.154 243.055 226.815 C 242.538 226.476 241.183 225.999 240.044 225.754 C 238.905 225.51 237.055 224.883 235.933 224.36 C 234.81 223.837 233.392 223.408 232.78 223.406 C 232.168 223.404 230.638 222.97 229.38 222.441 C 228.122 221.913 226.089 221.356 224.862 221.204 C 222.929 220.964 222.477 220.733 221.462 219.465 L 220.292 218.002 L 220.292 192.924 L 220.292 167.846 L 221.681 166.414 C 222.444 165.626 223.794 164.771 224.681 164.513 C 226.735 163.917 229.194 161.933 231.712 158.839 C 232.803 157.499 234.113 155.952 234.622 155.402 C 235.919 154.004 239.198 150.017 241.202 147.402 C 242.129 146.192 243.789 144.216 244.89 143.011 C 245.991 141.806 246.892 140.674 246.892 140.495 C 246.892 140.316 247.243 139.682 247.672 139.086 C 248.456 137.996 249.486 134.308 250.891 127.564 C 251.972 122.373 254.421 118.156 256.647 117.652 C 257.992 117.347 265.891 116.755 266.852 117.204 M 185.35 164.545 C 183.223 166.624 183.292 165.676 183.292 192.989 C 183.292 220.344 183.319 220.746 185.232 221.77 C 186.463 222.429 214.329 222.365 214.862 221.702 C 215.083 221.427 215.814 220.544 216.487 219.739 L 217.709 218.277 L 217.601 192.715 L 217.492 167.152 L 215.59 165.277 L 213.687 163.402 L 200.103 163.402 L 186.52 163.402 L 185.35 164.545 M 212.892 165.279 C 215.633 166.997 215.48 165.461 215.604 192.534 L 215.716 217.067 L 214.831 218.839 C 213.557 221.388 212.924 221.488 199.004 221.333 L 187.234 221.202 L 186.074 219.802 L 184.914 218.402 L 184.903 192.89 L 184.892 167.378 L 186.353 166.09 C 188.758 163.969 209.777 163.327 212.892 165.279 M 168.205 239.335 C 169.052 238.189 168.559 221.178 168.559 221.178 L 167.99 219.143 C 167.386 218.272 164.892 213.538 164.892 213.26 C 164.892 212.199 158.323 205.402 157.298 205.402 M 196.635 203.399 C 194.748 204.16 193.786 207.736 194.905 209.827 C 196.651 213.089 202.703 212.193 203.503 208.553 C 204.335 204.762 200.461 201.855 196.635 203.399 M 201.014 204.995 C 202.049 205.929 201.099 210.001 199.817 210.125 C 196.922 210.406 194.911 208.054 196.271 205.978 C 197.311 204.391 199.777 203.88 201.014 204.995" stroke="none" fill="#64cf7e" fill-rule="evenodd" data-index="3" style="opacity: 1; visibility: hidden;"/>
        <ellipse style="fill: rgb(219, 38, 37); stroke: rgb(219, 38, 37);" cx="-7.563" cy="171.896" rx="6.776" ry="6.776"/>
        <ellipse style="stroke-width: 1; stroke: rgb(30, 188, 67); fill: rgb(30, 188, 67);" cx="200.601" cy="210.515" rx="6.776" ry="6.776"/>
      </g>
    </g>
    <ellipse style="fill: rgb(2, 123, 255); stroke: rgb(2, 123, 255);" cx="196.883" cy="183.984" rx="29.226" ry="29.226"/>
    <text style="fill: rgb(255, 255, 255); font-family: Arial, sans-serif; font-size: 28px; white-space: pre;" x="174.943" y="194.292">OR</text>
  </g>
</svg>