<svg id="svg" version="1.1" xmlns="http://www.w3.org/2000/svg" xmlns:xlink="http://www.w3.org/1999/xlink" width="400" height="400" viewBox="0, 0, 400,400"><g id="svgg"><path id="path0" d="M202.499 148.900 L 202.600 205.800 207.468 206.000 C 211.610 206.170,212.507 206.327,213.484 207.050 C 214.115 207.517,215.254 208.035,216.016 208.202 C 216.777 208.368,217.909 208.930,218.531 209.452 C 219.153 209.973,219.817 210.400,220.006 210.400 C 221.031 210.400,227.600 217.197,227.600 218.258 C 227.600 218.536,228.050 219.214,228.600 219.764 C 229.150 220.314,229.600 221.167,229.600 221.660 C 229.600 222.153,230.094 223.270,230.698 224.141 L 231.796 225.725 231.796 234.432 C 231.796 242.784,231.760 243.187,230.913 244.333 C 230.427 244.990,229.820 246.360,229.564 247.377 C 229.308 248.394,228.782 249.396,228.395 249.603 C 228.008 249.810,227.588 250.393,227.461 250.898 C 227.149 252.142,221.321 257.937,219.700 258.615 C 218.985 258.914,218.400 259.341,218.400 259.564 C 218.400 259.787,217.470 260.245,216.333 260.583 C 215.197 260.920,213.919 261.512,213.493 261.898 C 212.876 262.457,211.850 262.623,208.459 262.711 C 206.117 262.773,203.795 262.911,203.300 263.019 L 202.400 263.215 202.400 285.608 L 202.400 308.000 294.538 308.000 C 385.272 308.000,386.687 307.988,387.379 307.223 C 387.766 306.795,388.593 306.333,389.215 306.197 C 390.042 306.015,390.415 305.642,390.597 304.815 C 390.733 304.193,391.195 303.366,391.623 302.979 C 392.847 301.871,392.847 98.129,391.623 97.021 C 391.195 96.634,390.733 95.807,390.597 95.185 C 390.415 94.358,390.042 93.985,389.215 93.803 C 388.593 93.667,387.766 93.205,387.379 92.777 C 386.687 92.012,385.272 92.000,294.537 92.000 L 202.397 92.000 202.499 148.900 M324.176 121.013 C 324.651 121.371,325.850 121.600,327.258 121.600 C 329.517 121.600,331.600 122.204,331.600 122.859 C 331.600 123.041,332.197 123.439,332.928 123.744 C 333.658 124.049,334.693 124.864,335.228 125.556 C 335.762 126.247,336.606 127.332,337.102 127.967 C 337.609 128.616,338.112 129.970,338.250 131.060 C 338.385 132.127,338.789 133.450,339.148 134.000 C 340.097 135.455,340.093 144.555,339.142 146.000 C 338.781 146.550,338.364 148.026,338.216 149.279 C 338.061 150.592,337.613 151.984,337.160 152.561 C 336.726 153.112,336.169 154.156,335.922 154.881 C 335.674 155.607,335.141 156.629,334.736 157.154 C 333.154 159.204,333.130 159.199,345.100 159.210 C 356.215 159.219,359.022 159.469,359.789 160.517 C 360.015 160.825,360.740 161.362,361.400 161.710 C 362.060 162.058,363.140 162.995,363.800 163.791 C 364.460 164.586,365.405 165.655,365.900 166.165 C 366.423 166.703,366.970 167.989,367.206 169.232 C 367.429 170.409,367.789 171.549,368.006 171.766 C 368.610 172.370,368.474 176.167,367.802 177.454 C 367.474 178.084,367.204 179.068,367.202 179.640 C 367.199 180.932,366.433 183.200,366.000 183.200 C 365.230 183.200,364.800 186.112,364.800 191.325 C 364.800 196.593,364.739 197.033,363.792 198.649 C 362.891 200.187,362.770 200.889,362.650 205.284 C 362.509 210.447,361.262 214.229,359.119 215.996 C 358.538 216.475,358.318 217.487,358.056 220.899 C 357.840 223.712,357.521 225.440,357.131 225.899 C 356.803 226.284,356.227 227.438,355.849 228.463 C 355.147 230.366,351.760 234.000,350.687 234.000 C 350.386 234.000,349.739 234.426,349.250 234.947 C 348.611 235.627,347.733 235.968,346.145 236.155 C 344.928 236.298,343.416 236.682,342.785 237.008 C 341.146 237.855,323.605 237.877,322.286 237.033 C 321.764 236.699,319.471 236.315,316.704 236.098 C 313.172 235.822,311.816 235.557,311.235 235.032 C 310.764 234.605,309.331 234.191,307.559 233.968 C 305.560 233.717,304.386 233.350,303.790 232.790 C 303.240 232.274,302.134 231.891,300.762 231.742 C 299.538 231.610,297.992 231.113,297.200 230.600 C 296.367 230.059,294.851 229.588,293.458 229.437 C 291.155 229.187,289.640 228.647,289.153 227.903 C 289.018 227.695,287.794 227.394,286.433 227.234 C 284.515 227.007,283.718 226.700,282.880 225.862 L 281.800 224.782 281.692 198.411 L 281.583 172.039 283.222 170.268 C 284.472 168.918,285.232 168.447,286.419 168.288 C 288.102 168.062,293.376 163.118,296.397 158.935 C 298.444 156.099,302.533 151.212,307.030 146.224 C 307.487 145.718,308.099 144.695,308.392 143.952 C 308.685 143.208,309.270 142.017,309.692 141.305 C 310.199 140.449,310.584 138.696,310.825 136.141 C 311.056 133.708,311.415 132.026,311.792 131.608 C 312.123 131.243,312.563 130.051,312.770 128.959 C 313.277 126.286,315.695 122.604,317.335 122.008 C 318.031 121.755,319.050 121.306,319.600 121.011 C 320.942 120.289,323.221 120.290,324.176 121.013 M278.298 170.275 L 280.200 172.150 280.309 197.713 L 280.417 223.275 279.195 224.737 C 278.522 225.542,277.791 226.425,277.570 226.700 C 277.037 227.363,249.171 227.427,247.940 226.768 C 246.027 225.744,246.000 225.342,246.000 197.987 C 246.000 170.674,245.931 171.622,248.058 169.543 L 249.228 168.400 262.811 168.400 L 276.395 168.400 278.298 170.275 M260.523 209.614 C 256.981 211.001,258.617 215.502,262.525 215.123 C 263.807 214.999,264.757 210.927,263.722 209.993 C 263.140 209.469,261.416 209.264,260.523 209.614 " stroke="none" fill="#1cbc44" fill-rule="evenodd" data-index="0" style="opacity: 1;"></path><path id="path1" d="M12.470 91.655 C 10.666 92.175,7.759 95.163,7.210 97.062 C 6.888 98.177,6.798 126.713,6.883 200.829 L 7.000 303.058 8.103 304.726 C 8.710 305.643,9.957 306.890,10.874 307.497 L 12.542 308.600 106.926 308.703 C 176.670 308.780,201.452 308.689,201.855 308.354 C 202.638 307.705,202.667 263.520,201.885 262.871 C 201.602 262.636,199.976 262.270,198.271 262.059 C 196.566 261.847,194.953 261.501,194.686 261.290 C 194.418 261.079,193.210 260.589,192.000 260.203 C 190.790 259.816,189.428 259.162,188.974 258.750 C 188.520 258.337,187.956 258.000,187.721 258.000 C 186.244 258.000,177.600 247.843,177.600 246.108 C 177.600 245.816,177.150 244.507,176.600 243.200 C 175.123 239.692,175.095 229.191,176.552 225.688 C 177.075 224.430,177.634 222.950,177.794 222.400 C 178.958 218.389,188.615 208.800,191.492 208.800 C 191.784 208.800,193.093 208.350,194.400 207.800 C 195.822 207.201,197.548 206.800,198.699 206.800 C 199.792 206.800,201.006 206.531,201.511 206.177 L 202.400 205.555 202.400 148.857 C 202.400 105.293,202.289 92.049,201.920 91.680 C 201.310 91.070,14.586 91.046,12.470 91.655 M139.270 155.007 C 145.904 157.923,149.173 162.823,149.194 169.882 C 149.198 171.432,149.454 172.338,150.192 173.427 C 152.732 177.170,153.340 179.067,153.630 184.162 C 153.860 188.212,154.089 189.423,155.035 191.600 C 156.295 194.499,156.793 199.512,156.078 202.101 C 155.719 203.402,155.860 203.924,157.516 207.453 C 160.922 214.710,159.965 220.876,154.622 226.093 C 151.053 229.577,148.637 230.150,136.448 230.400 C 124.737 230.640,124.836 230.597,126.838 234.600 C 130.129 241.184,130.879 244.381,130.703 251.077 L 130.553 256.755 128.897 260.077 C 127.111 263.660,124.605 266.028,121.990 266.602 C 121.290 266.756,119.901 267.243,118.903 267.684 C 112.032 270.724,106.977 265.824,104.971 254.179 C 103.957 248.292,102.408 244.974,98.855 241.083 C 97.175 239.243,95.262 236.941,94.605 235.968 C 89.964 229.102,83.096 222.144,79.127 220.287 C 75.127 218.416,75.416 220.493,75.288 192.687 C 75.150 162.607,75.025 163.163,82.070 162.561 C 83.802 162.413,85.818 161.935,87.000 161.391 C 88.100 160.886,89.720 160.346,90.600 160.192 C 91.480 160.038,92.768 159.588,93.461 159.192 C 94.155 158.797,95.775 158.260,97.061 158.000 C 98.348 157.740,99.823 157.257,100.340 156.928 C 100.857 156.598,102.989 156.072,105.078 155.758 C 107.167 155.445,109.208 155.010,109.614 154.793 C 111.317 153.881,113.980 153.678,124.735 153.640 L 136.070 153.600 139.270 155.007 M69.135 163.996 C 71.657 166.023,71.643 165.854,71.515 192.602 C 71.387 219.271,71.469 218.484,68.719 219.644 C 66.858 220.429,43.998 220.453,42.148 219.671 C 39.520 218.562,39.560 219.034,39.686 191.053 L 39.800 165.906 41.600 164.354 L 43.400 162.802 55.523 162.801 L 67.647 162.800 69.135 163.996 M51.569 174.369 C 49.088 176.850,50.919 182.000,54.282 182.000 C 55.990 182.000,58.400 179.679,58.400 178.033 C 58.400 173.767,54.346 171.592,51.569 174.369 " stroke="none" fill="#dc2525" fill-rule="evenodd" data-index="1" style="opacity: 1;"></path><path id="path3" d="M202.494 91.081 C 198.391 91.879,210.463 92.000,294.362 92.000 C 385.271 92.000,386.687 92.012,387.379 92.777 C 387.766 93.205,388.593 93.667,389.215 93.803 C 390.042 93.985,390.415 94.358,390.597 95.185 C 390.733 95.807,391.195 96.634,391.623 97.021 C 392.847 98.129,392.847 301.871,391.623 302.979 C 391.195 303.366,390.733 304.193,390.597 304.815 C 390.415 305.642,390.042 306.015,389.215 306.197 C 388.593 306.333,387.766 306.795,387.379 307.223 C 386.687 307.988,385.271 308.000,294.362 308.000 C 237.471 308.000,201.958 308.144,201.816 308.374 C 201.319 309.179,207.894 309.231,296.261 309.117 L 387.521 309.000 389.226 307.765 C 390.163 307.086,391.486 305.763,392.165 304.826 L 393.400 303.121 393.400 200.000 L 393.400 96.879 392.165 95.174 C 391.486 94.237,390.163 92.914,389.226 92.235 L 387.521 91.000 295.461 90.952 C 244.827 90.926,202.992 90.984,202.494 91.081 M319.600 121.011 C 319.050 121.306,318.031 121.755,317.335 122.008 C 315.695 122.604,313.277 126.286,312.770 128.959 C 312.563 130.051,312.123 131.243,311.792 131.608 C 311.415 132.026,311.056 133.708,310.825 136.141 C 310.584 138.696,310.199 140.449,309.692 141.305 C 309.270 142.017,308.685 143.208,308.392 143.952 C 308.099 144.695,307.487 145.718,307.030 146.224 C 302.533 151.212,298.444 156.099,296.397 158.935 C 293.376 163.118,288.102 168.062,286.419 168.288 C 285.232 168.447,284.472 168.918,283.222 170.268 L 281.583 172.039 281.692 198.411 L 281.800 224.782 282.880 225.862 C 283.718 226.700,284.515 227.007,286.433 227.234 C 287.794 227.394,289.018 227.695,289.153 227.903 C 289.640 228.647,291.155 229.187,293.458 229.437 C 294.851 229.588,296.367 230.059,297.200 230.600 C 297.992 231.113,299.538 231.610,300.762 231.742 C 302.134 231.891,303.240 232.274,303.790 232.790 C 304.386 233.350,305.560 233.717,307.559 233.968 C 309.331 234.191,310.764 234.605,311.235 235.032 C 311.816 235.557,313.172 235.822,316.704 236.098 C 319.471 236.315,321.764 236.699,322.286 237.033 C 323.605 237.877,341.146 237.855,342.785 237.008 C 343.416 236.682,344.928 236.298,346.145 236.155 C 347.733 235.968,348.611 235.627,349.250 234.947 C 349.739 234.426,350.386 234.000,350.687 234.000 C 351.760 234.000,355.147 230.366,355.849 228.463 C 356.227 227.438,356.803 226.284,357.131 225.899 C 357.521 225.440,357.840 223.712,358.056 220.899 C 358.318 217.487,358.538 216.475,359.119 215.996 C 361.262 214.229,362.509 210.447,362.650 205.284 C 362.770 200.889,362.891 200.187,363.792 198.649 C 364.739 197.033,364.800 196.593,364.800 191.325 C 364.800 186.112,365.230 183.200,366.000 183.200 C 366.433 183.200,367.199 180.932,367.202 179.640 C 367.204 179.068,367.474 178.084,367.802 177.454 C 368.474 176.167,368.610 172.370,368.006 171.766 C 367.789 171.549,367.429 170.409,367.206 169.232 C 366.970 167.989,366.423 166.703,365.900 166.165 C 365.405 165.655,364.460 164.586,363.800 163.791 C 363.140 162.995,362.060 162.058,361.400 161.710 C 360.740 161.362,360.015 160.825,359.789 160.517 C 359.022 159.469,356.215 159.219,345.100 159.210 C 333.130 159.199,333.154 159.204,334.736 157.154 C 335.141 156.629,335.674 155.607,335.922 154.881 C 336.169 154.156,336.726 153.112,337.160 152.561 C 337.613 151.984,338.061 150.592,338.216 149.279 C 338.364 148.026,338.781 146.550,339.142 146.000 C 340.093 144.555,340.097 135.455,339.148 134.000 C 338.789 133.450,338.385 132.127,338.250 131.060 C 338.112 129.970,337.609 128.616,337.102 127.967 C 336.606 127.332,335.762 126.247,335.228 125.556 C 334.693 124.864,333.658 124.049,332.928 123.744 C 332.197 123.439,331.600 123.041,331.600 122.859 C 331.600 122.204,329.517 121.600,327.258 121.600 C 325.850 121.600,324.651 121.371,324.176 121.013 C 323.221 120.290,320.942 120.289,319.600 121.011 M328.927 123.248 C 335.436 126.287,337.580 130.438,337.580 140.000 C 337.580 146.610,337.142 148.418,334.138 154.187 C 330.894 160.416,330.421 160.151,345.219 160.400 C 355.456 160.572,357.221 160.691,357.859 161.252 C 358.266 161.610,359.212 162.214,359.961 162.594 C 366.055 165.683,368.125 174.840,364.400 182.229 C 362.655 185.690,362.614 185.855,363.068 187.600 C 364.096 191.556,362.895 198.448,360.812 200.546 C 360.623 200.736,360.568 202.200,360.689 203.800 C 360.971 207.529,360.013 211.586,358.180 214.431 C 357.382 215.670,356.733 217.277,356.593 218.363 C 355.651 225.669,352.265 232.800,349.737 232.800 C 349.575 232.800,348.801 233.245,348.017 233.788 C 344.557 236.186,319.162 236.347,313.574 234.006 C 312.569 233.585,310.613 233.058,309.226 232.835 C 307.839 232.612,306.281 232.152,305.763 231.813 C 305.246 231.474,303.891 230.997,302.752 230.752 C 301.613 230.508,299.763 229.881,298.641 229.358 C 297.518 228.835,296.100 228.406,295.488 228.404 C 294.876 228.402,293.346 227.968,292.088 227.439 C 290.830 226.911,288.797 226.354,287.570 226.202 C 285.637 225.962,285.185 225.731,284.170 224.463 L 283.000 223.000 283.000 197.922 L 283.000 172.844 284.389 171.412 C 285.152 170.624,286.502 169.769,287.389 169.511 C 289.443 168.915,291.902 166.931,294.420 163.837 C 295.511 162.497,296.821 160.950,297.330 160.400 C 298.627 159.002,301.906 155.015,303.910 152.400 C 304.837 151.190,306.497 149.214,307.598 148.009 C 308.699 146.804,309.600 145.672,309.600 145.493 C 309.600 145.314,309.951 144.680,310.380 144.084 C 311.164 142.994,312.194 139.306,313.599 132.562 C 314.680 127.371,317.129 123.154,319.355 122.650 C 320.700 122.345,327.966 122.799,328.927 123.248 M248.058 169.543 C 245.931 171.622,246.000 170.674,246.000 197.987 C 246.000 225.342,246.027 225.744,247.940 226.768 C 249.171 227.427,277.037 227.363,277.570 226.700 C 277.791 226.425,278.522 225.542,279.195 224.737 L 280.417 223.275 280.309 197.713 L 280.200 172.150 278.298 170.275 L 276.395 168.400 262.811 168.400 L 249.228 168.400 248.058 169.543 M275.600 170.277 C 278.341 171.995,278.188 170.459,278.312 197.532 L 278.424 222.065 277.539 223.837 C 276.265 226.386,275.632 226.486,261.712 226.331 L 249.942 226.200 248.782 224.800 L 247.622 223.400 247.611 197.888 L 247.600 172.376 249.061 171.088 C 251.466 168.967,272.485 168.325,275.600 170.277 M201.736 206.103 C 201.454 206.560,202.247 206.711,206.364 206.987 C 208.632 207.138,210.779 207.528,211.764 207.966 C 212.664 208.366,213.939 208.822,214.597 208.979 C 218.504 209.909,225.847 216.855,228.152 221.800 C 230.932 227.766,231.933 237.779,230.163 241.913 C 229.813 242.731,229.255 244.300,228.924 245.400 C 228.593 246.500,228.091 247.670,227.809 248.000 C 227.527 248.330,227.023 249.140,226.688 249.800 C 225.930 251.294,220.103 257.116,218.512 257.969 C 213.911 260.434,210.623 261.552,207.200 261.813 C 199.617 262.392,199.813 263.162,207.458 262.829 C 211.689 262.645,212.868 262.463,213.492 261.898 C 213.918 261.512,215.197 260.920,216.333 260.583 C 217.470 260.245,218.400 259.787,218.400 259.564 C 218.400 259.341,218.985 258.914,219.700 258.615 C 221.321 257.937,227.149 252.142,227.461 250.898 C 227.588 250.393,228.008 249.810,228.395 249.603 C 228.782 249.396,229.308 248.394,229.564 247.377 C 229.820 246.360,230.427 244.990,230.913 244.333 C 231.760 243.187,231.796 242.784,231.796 234.432 L 231.796 225.725 230.698 224.141 C 230.094 223.270,229.600 222.153,229.600 221.660 C 229.600 221.167,229.150 220.314,228.600 219.764 C 228.050 219.214,227.600 218.536,227.600 218.258 C 227.600 217.197,221.031 210.400,220.006 210.400 C 219.817 210.400,219.153 209.973,218.531 209.452 C 217.909 208.930,216.770 208.367,216.000 208.200 C 215.230 208.033,214.177 207.564,213.659 207.158 C 212.317 206.106,202.281 205.218,201.736 206.103 M259.343 208.397 C 257.456 209.158,256.494 212.734,257.613 214.825 C 259.359 218.087,265.411 217.191,266.211 213.551 C 267.043 209.760,263.169 206.853,259.343 208.397 M263.722 209.993 C 264.757 210.927,263.807 214.999,262.525 215.123 C 259.630 215.404,257.619 213.052,258.979 210.976 C 260.019 209.389,262.485 208.878,263.722 209.993 M195.510 232.450 C 196.359 232.695,197.063 232.687,197.510 232.426 C 198.036 232.120,197.723 232.030,196.200 232.048 C 194.273 232.071,194.248 232.086,195.510 232.450 M195.500 245.688 C 196.147 246.000,196.653 246.000,197.300 245.688 C 198.090 245.307,197.980 245.254,196.400 245.254 C 194.820 245.254,194.710 245.307,195.500 245.688 " stroke="none" fill="#64cf7e" fill-rule="evenodd" data-index="3" style="opacity: 1; visibility: hidden;"></path></g></svg>